<svg width="503" height="640" viewBox="0 0 503 640" fill="none" xmlns="http://www.w3.org/2000/svg">
<path d="M251.5 581C162 498.5 1.5 552 1 639L27 639C41.5 561 208.5 563.5 224 639H279C298 557.5 461 566.499 476 639H502C505 558.5 344 495.5 251.5 581Z" fill="#FFC82A" stroke="#FFC82A"/>
<path d="M251.5 556C227 535 208.5 525.5 169 518V392C130.953 375.589 113.614 361.351 89 328C72.6929 303.577 66 289.5 63 262C60 234.5 60 224.5 69 197C78 169.5 88.0001 157 114 158.5C140 160 153.5 185 148 198C110.5 284 173 341.5 259.5 342.5C346 343.5 446 424 432 529C405.003 519.308 389.111 515.988 359 515C358.103 479.885 351.269 463.972 330 441V519C294.238 525.667 277.393 534.291 251.5 556Z" fill="#45A099" stroke="#45A099"/>
<path d="M228 131V136C227.429 143.917 235.5 145 235.5 145C235.5 145 251 145.682 258.5 145C266 144.318 266.5 136 266.5 136V131M228 131H266.5M228 131V120.75V119.5M266.5 131V119.5M228 119.5V110.5C187.5 81.5 210 30.2055 249 32.4998C288 34.7941 305.5 83.5 266.5 110.5V119.5M228 119.5H266.5M181.5 71H194.5M190 37L205 46.5M214 13L223 28M247.5 22V3" stroke="#FFC82A" stroke-width="6" stroke-linecap="round"/>
<path d="M282 13L272 28M291 47L306 37M300 71H315" stroke="#FFC82A" stroke-width="6" stroke-linecap="round"/>
<path d="M317.5 243C317.5 280.276 287.059 310.5 249.5 310.5C211.941 310.5 181.5 280.276 181.5 243C181.5 205.724 211.941 175.5 249.5 175.5C287.059 175.5 317.5 205.724 317.5 243Z" fill="#45A099" stroke="#45A099"/>
</svg>
